<svg width="19" height="19" viewBox="0 0 19 19" fill="none" xmlns="http://www.w3.org/2000/svg">
<path d="M17.75 17.75L12.0833 12.0833M13.9722 7.36111C13.9722 8.22929 13.8012 9.08898 13.469 9.89107C13.1367 10.6932 12.6498 11.422 12.0359 12.0359C11.422 12.6498 10.6932 13.1367 9.89107 13.469C9.08898 13.8012 8.22929 13.9722 7.36111 13.9722C6.49293 13.9722 5.63325 13.8012 4.83115 13.469C4.02905 13.1367 3.30025 12.6498 2.68635 12.0359C2.07245 11.422 1.58548 10.6932 1.25324 9.89107C0.921002 9.08898 0.75 8.22929 0.75 7.36111C0.75 5.60774 1.44653 3.92617 2.68635 2.68635C3.92617 1.44653 5.60774 0.75 7.36111 0.75C9.11449 0.75 10.796 1.44653 12.0359 2.68635C13.2757 3.92617 13.9722 5.60774 13.9722 7.36111Z" stroke="black" stroke-width="1.5" stroke-linecap="round" stroke-linejoin="round"/>
</svg>
