<svg width="27" height="28" viewBox="0 0 27 28" fill="none" xmlns="http://www.w3.org/2000/svg">
<path d="M7.83 0H19.17C23.49 0 27 3.64 27 8.12V19.88C27 22.0336 26.1751 24.0989 24.7066 25.6217C23.2382 27.1445 21.2466 28 19.17 28H7.83C3.51 28 0 24.36 0 19.88V8.12C0 5.96644 0.824944 3.90109 2.29335 2.37829C3.76176 0.855498 5.75336 0 7.83 0ZM7.56 2.8C6.27105 2.8 5.03489 3.331 4.12346 4.27618C3.21203 5.22137 2.7 6.50331 2.7 7.84V20.16C2.7 22.946 4.8735 25.2 7.56 25.2H19.44C20.729 25.2 21.9651 24.669 22.8765 23.7238C23.788 22.7786 24.3 21.4967 24.3 20.16V7.84C24.3 5.054 22.1265 2.8 19.44 2.8H7.56ZM20.5875 4.9C21.0351 4.9 21.4643 5.08437 21.7807 5.41256C22.0972 5.74075 22.275 6.18587 22.275 6.65C22.275 7.11413 22.0972 7.55925 21.7807 7.88744C21.4643 8.21563 21.0351 8.4 20.5875 8.4C20.1399 8.4 19.7107 8.21563 19.3943 7.88744C19.0778 7.55925 18.9 7.11413 18.9 6.65C18.9 6.18587 19.0778 5.74075 19.3943 5.41256C19.7107 5.08437 20.1399 4.9 20.5875 4.9ZM13.5 7C15.2902 7 17.0071 7.7375 18.273 9.05025C19.5388 10.363 20.25 12.1435 20.25 14C20.25 15.8565 19.5388 17.637 18.273 18.9497C17.0071 20.2625 15.2902 21 13.5 21C11.7098 21 9.9929 20.2625 8.72703 18.9497C7.46116 17.637 6.75 15.8565 6.75 14C6.75 12.1435 7.46116 10.363 8.72703 9.05025C9.9929 7.7375 11.7098 7 13.5 7ZM13.5 9.8C12.4259 9.8 11.3957 10.2425 10.6362 11.0302C9.87669 11.8178 9.45 12.8861 9.45 14C9.45 15.1139 9.87669 16.1822 10.6362 16.9698C11.3957 17.7575 12.4259 18.2 13.5 18.2C14.5741 18.2 15.6043 17.7575 16.3638 16.9698C17.1233 16.1822 17.55 15.1139 17.55 14C17.55 12.8861 17.1233 11.8178 16.3638 11.0302C15.6043 10.2425 14.5741 9.8 13.5 9.8Z" fill="#EEEEEE"/>
</svg>
