<svg width="19" height="19" viewBox="0 0 19 19" fill="none" xmlns="http://www.w3.org/2000/svg">
<path d="M9.49966 2.57887e-07C10.7416 -0.000359632 11.9509 0.375969 12.9501 1.07375C13.9494 1.77153 14.6859 2.75401 15.0516 3.877C15.4173 4.99998 15.393 6.20432 14.9821 7.31324C14.5713 8.42217 13.7956 9.37728 12.7689 10.0384C14.551 10.6569 16.0966 11.7658 17.2069 13.2226C18.3172 14.6793 18.9414 16.4172 18.999 18.2124C19.0044 18.312 18.9887 18.4117 18.9528 18.5055C18.9169 18.5993 18.8616 18.6855 18.7901 18.7588C18.7186 18.8321 18.6323 18.8912 18.5364 18.9326C18.4404 18.9739 18.3367 18.9967 18.2313 18.9997C18.1259 19.0026 18.0209 18.9856 17.9225 18.9496C17.8242 18.9136 17.7344 18.8595 17.6585 18.7902C17.5825 18.721 17.522 18.6381 17.4804 18.5464C17.4388 18.4547 17.4169 18.3561 17.4161 18.2563C17.3532 16.3095 16.4917 14.4623 15.014 13.1062C13.5363 11.7501 11.5587 10.9917 9.50019 10.9917C7.44167 10.9917 5.46404 11.7501 3.98638 13.1062C2.50872 14.4623 1.64716 16.3095 1.58428 18.2563C1.57798 18.4551 1.4885 18.6433 1.33552 18.7796C1.18254 18.916 0.9786 18.9892 0.768559 18.9832C0.558518 18.9773 0.359583 18.8926 0.215517 18.7478C0.0714509 18.6031 -0.00594452 18.4101 0.000356711 18.2114C0.0581679 16.4163 0.682388 14.6787 1.79268 13.2222C2.90297 11.7656 4.44853 10.6568 6.23045 10.0384C5.20374 9.37728 4.42803 8.42217 4.01718 7.31324C3.60634 6.20432 3.58199 4.99998 3.94771 3.877C4.31343 2.75401 5.04997 1.77153 6.04921 1.07375C7.04844 0.375969 8.25776 -0.000359632 9.49966 2.57887e-07ZM5.27587 5.49529C5.27587 6.55524 5.72088 7.57179 6.51299 8.32129C7.30511 9.07079 8.37944 9.49186 9.49966 9.49186C10.6199 9.49186 11.6942 9.07079 12.4863 8.32129C13.2784 7.57179 13.7235 6.55524 13.7235 5.49529C13.7235 4.43533 13.2784 3.41879 12.4863 2.66928C11.6942 1.91978 10.6199 1.49871 9.49966 1.49871C8.37944 1.49871 7.30511 1.91978 6.51299 2.66928C5.72088 3.41879 5.27587 4.43533 5.27587 5.49529Z" fill="black"/>
</svg>
