<svg width="45" height="45" viewBox="0 0 45 45" fill="none" xmlns="http://www.w3.org/2000/svg">
<path fill-rule="evenodd" clip-rule="evenodd" d="M22.5141 2.77962C14.7506 2.77962 8.44981 9.08159 8.44981 16.8465V16.855C8.84361 16.8465 9.32179 16.8465 9.93781 16.8465C10.5144 16.8465 10.8013 16.8465 11.0433 16.8803C11.8032 16.9884 12.5075 17.3403 13.0503 17.8832C13.593 18.4261 13.9449 19.1305 14.053 19.8906C14.0868 20.1325 14.0868 20.4195 14.0868 20.9962V35.2319C14.0868 35.8087 14.0868 36.0957 14.053 36.3376C13.9449 37.0977 13.593 37.8021 13.0503 38.345C12.5075 38.8879 11.8032 39.2398 11.0433 39.3479C10.8013 39.3817 10.5144 39.3817 9.93781 39.3817C8.55388 39.3817 7.86192 39.3817 7.28247 39.3001C5.4635 39.0434 3.77733 38.202 2.47839 36.9028C1.17944 35.6036 0.338192 33.9172 0.0815727 32.0978C5.23934e-09 31.5183 0 30.8262 0 29.442V26.7974C0 25.4104 5.23934e-09 24.7183 0.0815727 24.1388C0.290708 22.6076 0.91891 21.164 1.89679 19.9675C2.87468 18.771 4.16418 17.8681 5.62289 17.3586V16.8803C5.62289 7.56799 13.1895 0 22.5 0C31.8105 0 39.3771 7.56799 39.3771 16.8803V17.3586C40.8308 17.8763 42.1154 18.7816 43.0921 19.9766C44.0687 21.1716 44.7002 22.6109 44.9184 24.1388C45 24.7183 45 25.4104 45 26.7946V29.442C45 30.8262 45 31.5183 44.9184 32.0978C44.692 33.7177 43.9998 35.2368 42.9262 36.4705C41.8525 37.7041 40.4436 38.5992 38.8708 39.0469L34.5671 43.3514C33.5151 44.4039 32.089 44.9967 30.601 45H21.0936C20.7206 45 20.3628 44.8518 20.0991 44.588C19.8353 44.3242 19.6871 43.9664 19.6871 43.5933C19.6871 43.2202 19.8353 42.8624 20.0991 42.5986C20.3628 42.3348 20.7206 42.1866 21.0936 42.1866H30.601C31.3464 42.1866 32.0637 41.8912 32.5897 41.3623L34.5784 39.3732C33.7066 39.3999 32.8556 39.1042 32.1882 38.5425C31.5208 37.9809 31.0839 37.1928 30.9611 36.3292C30.9273 36.09 30.9273 35.8031 30.9273 35.2263V20.9906C30.9273 20.4139 30.9273 20.1269 30.9611 19.885C31.0692 19.1249 31.421 18.4205 31.9638 17.8776C32.5066 17.3347 33.2109 16.9828 33.9708 16.8746C34.2127 16.8409 34.4996 16.8409 35.0763 16.8409C35.6923 16.8409 36.1733 16.8409 36.5643 16.8465V16.8409C36.5643 9.07596 30.2635 2.77399 22.5 2.77399L22.5141 2.77962ZM11.2627 20.9822V35.2179L11.2542 35.9437C11.232 36.092 11.163 36.2293 11.0572 36.3356C10.9514 36.4419 10.8145 36.5116 10.6663 36.5345L10.551 36.5374L9.94062 36.5402C8.46387 36.5402 8.011 36.5345 7.67346 36.4867C6.46398 36.3202 5.3421 35.7627 4.4788 34.8992C3.6155 34.0358 3.05812 32.9137 2.89161 31.704C2.84379 31.3664 2.83535 30.9162 2.83535 29.4364V26.7918C2.83535 25.312 2.84379 24.859 2.89161 24.5214C3.05812 23.3117 3.6155 22.1896 4.4788 21.3262C5.3421 20.4627 6.46398 19.9052 7.67346 19.7387C8.011 19.6908 8.46106 19.6824 9.94062 19.6824L10.6663 19.6937C10.8146 19.7159 10.9519 19.7849 11.0582 19.8907C11.1644 19.9965 11.2341 20.1335 11.257 20.2817V20.397C11.2627 20.532 11.2627 20.7065 11.2627 21.0103V20.9822ZM33.7655 20.9822V35.2179L33.7739 35.9437C33.7961 36.092 33.8652 36.2293 33.9709 36.3356C34.0767 36.4419 34.2136 36.5116 34.3618 36.5345L34.4771 36.5374L35.0875 36.5402C36.5643 36.5402 37.0171 36.5345 37.3547 36.4867C38.5642 36.3202 39.686 35.7627 40.5493 34.8992C41.4126 34.0358 41.97 32.9137 42.1365 31.704C42.1843 31.3664 42.1928 30.9162 42.1928 29.4364V26.7918C42.1928 25.312 42.1843 24.859 42.1365 24.5214C41.97 23.3117 41.4126 22.1896 40.5493 21.3262C39.686 20.4627 38.5642 19.9052 37.3547 19.7387C37.0171 19.6908 36.5671 19.6824 35.0875 19.6824L34.3618 19.6937C34.2135 19.7159 34.0762 19.7849 33.97 19.8907C33.8637 19.9965 33.794 20.1335 33.7711 20.2817V20.397C33.7655 20.532 33.7655 20.7065 33.7655 21.0103V20.9822Z" fill="#675F50"/>
</svg>
