<svg width="70" height="70" viewBox="0 0 70 70" fill="none" xmlns="http://www.w3.org/2000/svg">
<circle cx="35" cy="35" r="35" fill="#828282"/>
<path d="M28.4777 23C28.2583 23 28.0479 23.0878 27.8927 23.2441C27.7375 23.4004 27.6504 23.6123 27.6504 23.8333C27.6504 24.0543 27.7375 24.2663 27.8927 24.4226C28.0479 24.5789 28.2583 24.6667 28.4777 24.6667H41.7157C41.9351 24.6667 42.1455 24.5789 42.3007 24.4226C42.4559 24.2663 42.543 24.0543 42.543 23.8333C42.543 23.6123 42.4559 23.4004 42.3007 23.2441C42.1455 23.0878 41.9351 23 41.7157 23H28.4777ZM35.0967 48C34.8773 48 34.6668 47.9122 34.5117 47.7559C34.3565 47.5996 34.2693 47.3877 34.2693 47.1667V30.85L27.4022 37.7667C27.2461 37.9185 27.0371 38.0025 26.8202 38.0006C26.6032 37.9987 26.3957 37.911 26.2423 37.7565C26.0889 37.602 26.0019 37.393 26 37.1745C25.9981 36.956 26.0815 36.7455 26.2323 36.5883L34.506 28.255C34.6611 28.0988 34.8715 28.011 35.0909 28.011C35.3103 28.011 35.5207 28.0988 35.6759 28.255L43.9496 36.5883C44.1003 36.7455 44.1837 36.956 44.1818 37.1745C44.1799 37.393 44.0929 37.602 43.9395 37.7565C43.7861 37.911 43.5786 37.9987 43.3616 38.0006C43.1447 38.0025 42.9357 37.9185 42.7797 37.7667L35.9125 30.85V47.1667C35.9125 47.3877 35.8253 47.5996 35.6702 47.7559C35.515 47.9122 35.3046 48 35.0851 48H35.0967Z" fill="white"/>
</svg>
