<svg width="42" height="43" viewBox="0 0 42 43" fill="none" xmlns="http://www.w3.org/2000/svg">
<path d="M4.42105 22.6316V40.7368H19.8947V22.6316H4.42105ZM22.1053 22.6316V40.7368H37.5789V22.6316H22.1053ZM39.7895 22.6316V43H2.21053V22.6316H0V9.05263H6.72L6.63158 7.92105C6.63158 5.82026 7.44671 3.80551 8.89765 2.32002C10.3486 0.834538 12.3165 0 14.3684 0C17.1758 0 19.6516 1.53895 21 3.84737C22.3484 1.53895 24.8242 0 27.6316 0C29.6835 0 31.6514 0.834538 33.1024 2.32002C34.5533 3.80551 35.3684 5.82026 35.3684 7.92105L35.28 9.05263H42V22.6316H39.7895ZM2.21053 11.3158V20.3684H19.8947V11.3158H2.21053ZM39.7895 20.3684V11.3158H22.1053V20.3684H39.7895ZM33.0474 9.05263L33.1579 7.92105C33.1579 6.42049 32.5757 4.98138 31.5393 3.92032C30.5029 2.85926 29.0972 2.26316 27.6316 2.26316C26.1659 2.26316 24.7603 2.85926 23.7239 3.92032C22.6875 4.98138 22.1053 6.42049 22.1053 7.92105V9.05263H33.0474ZM19.8947 9.05263V7.92105C19.8947 6.42049 19.3125 4.98138 18.2761 3.92032C17.2397 2.85926 15.8341 2.26316 14.3684 2.26316C12.9028 2.26316 11.4971 2.85926 10.4607 3.92032C9.42434 4.98138 8.8421 6.42049 8.8421 7.92105L8.95263 9.05263H19.8947Z" fill="#675F50"/>
</svg>
