<svg width="45" height="48" viewBox="0 0 45 48" fill="none" xmlns="http://www.w3.org/2000/svg">
<path d="M2.66667 16.2682H42.3333M2.66667 31.2864H42.3333M1.25 23.7773C1.25 26.7356 1.79965 29.665 2.86756 32.3982C3.93547 35.1313 5.50074 37.6147 7.47398 39.7065C9.44723 41.7984 11.7898 43.4577 14.368 44.5899C16.9461 45.722 19.7094 46.3046 22.5 46.3046C25.2906 46.3046 28.0539 45.722 30.632 44.5899C33.2102 43.4577 35.5528 41.7984 37.526 39.7065C39.4993 37.6147 41.0645 35.1313 42.1324 32.3982C43.2004 29.665 43.75 26.7356 43.75 23.7773C43.75 17.8027 41.5112 12.0728 37.526 7.8481C33.5409 3.62341 28.1359 1.25 22.5 1.25C16.8642 1.25 11.4591 3.62341 7.47398 7.8481C3.48883 12.0728 1.25 17.8027 1.25 23.7773Z" stroke="#675F50" stroke-width="2.5" stroke-linecap="round" stroke-linejoin="round"/>
<path d="M21.3194 1.25C17.3417 8.00722 15.2329 15.8123 15.2329 23.7773C15.2329 31.7423 17.3417 39.5474 21.3194 46.3046M23.6805 1.25C27.6582 8.00722 29.7669 15.8123 29.7669 23.7773C29.7669 31.7423 27.6582 39.5474 23.6805 46.3046" stroke="#675F50" stroke-width="2.5" stroke-linecap="round" stroke-linejoin="round"/>
</svg>
