<svg width="54" height="37" viewBox="0 0 54 37" fill="none" xmlns="http://www.w3.org/2000/svg">
<path d="M10.3962 36.725C8.50223 36.725 6.897 36.0633 5.58056 34.74C4.26239 33.4166 3.6033 31.8096 3.6033 29.9191H0V0H38.6294V9.4076H44.6315L53.6384 21.5131V29.9191H49.4341C49.4341 31.8096 48.7716 33.4166 47.4465 34.74C46.1214 36.0633 44.5118 36.7242 42.6178 36.7224C40.7238 36.7207 39.1194 36.0599 37.8047 34.74C36.49 33.4201 35.8309 31.8131 35.8275 29.9191H17.21C17.21 31.82 16.5474 33.4296 15.2223 34.7478C13.8972 36.0659 12.2876 36.725 10.3936 36.725M10.404 34.1234C11.5748 34.1234 12.5678 33.7158 13.3829 32.9006C14.1981 32.0854 14.6057 31.0916 14.6057 29.9191C14.6057 28.7466 14.1981 27.7536 13.3829 26.9402C12.5678 26.1267 11.5748 25.7191 10.404 25.7174C9.23329 25.7157 8.24032 26.1233 7.42514 26.9402C6.60995 27.7571 6.20236 28.7501 6.20236 29.9191C6.20236 31.0881 6.60995 32.0811 7.42514 32.898C8.24032 33.7149 9.23329 34.1251 10.404 34.1234ZM2.59906 27.3174H4.28233C4.65177 26.1692 5.40538 25.1823 6.54317 24.3567C7.68097 23.5311 8.96792 23.1166 10.404 23.1131C11.7742 23.1131 13.0456 23.519 14.2181 24.3307C15.3888 25.1407 16.1589 26.1363 16.5283 27.3174H36.0226V2.60166H2.59906V27.3174ZM42.6256 34.1234C43.7963 34.1234 44.7893 33.7158 45.6045 32.9006C46.4197 32.0837 46.8273 31.0898 46.8273 29.9191C46.8273 28.7483 46.4197 27.7554 45.6045 26.9402C44.7893 26.125 43.7963 25.7174 42.6256 25.7174C41.4549 25.7174 40.4619 26.125 39.6467 26.9402C38.8315 27.7554 38.4239 28.7483 38.4239 29.9191C38.4239 31.0898 38.8315 32.0828 39.6467 32.898C40.4619 33.7132 41.4549 34.1234 42.6256 34.1234ZM38.6242 22.1141H50.8833L43.2292 12.0093H38.6242V22.1141Z" fill="#675F50"/>
<rect x="47.6312" y="23.4146" width="3.90249" height="5.20332" fill="#F0ECDB"/>
</svg>
